G04 #@! TF.FileFunction,Legend,Bot*
%FSLAX46Y46*%
G04 Gerber Fmt 4.6, Leading zero omitted, Abs format (unit mm)*
G04 Created by KiCad (PCBNEW 4.0.0-rc2-stable) date 02/03/2016 18:28:07*
%MOMM*%
G01*
G04 APERTURE LIST*
%ADD10C,0.150000*%
%ADD11C,0.269240*%
%ADD12C,0.254000*%
G04 APERTURE END LIST*
D10*
D11*
X123590899Y30958921D02*
X123590899Y32749621D01*
X123180628Y32749621D01*
X123078061Y32664350D01*
X123026777Y32579079D01*
X122975493Y32408536D01*
X122975493Y32152721D01*
X123026777Y31982179D01*
X123078061Y31896907D01*
X123180628Y31811636D01*
X123590899Y31811636D01*
X121949817Y30958921D02*
X122565223Y30958921D01*
X122257520Y30958921D02*
X122257520Y32749621D01*
X122360088Y32493807D01*
X122462655Y32323264D01*
X122565223Y32237993D01*
D12*
X112182429Y26386619D02*
X112182429Y26870428D01*
X110658429Y26870428D01*
X111384143Y26047952D02*
X111384143Y25709286D01*
X112182429Y25564143D02*
X112182429Y26047952D01*
X110658429Y26047952D01*
X110658429Y25564143D01*
X112182429Y25128714D02*
X110658429Y25128714D01*
X110658429Y24886809D01*
X110731000Y24741667D01*
X110876143Y24644905D01*
X111021286Y24596524D01*
X111311571Y24548143D01*
X111529286Y24548143D01*
X111819571Y24596524D01*
X111964714Y24644905D01*
X112109857Y24741667D01*
X112182429Y24886809D01*
X112182429Y25128714D01*
X112327571Y24354619D02*
X112327571Y23580524D01*
X110658429Y23145095D02*
X110658429Y22951572D01*
X110731000Y22854810D01*
X110876143Y22758048D01*
X111166429Y22709667D01*
X111674429Y22709667D01*
X111964714Y22758048D01*
X112109857Y22854810D01*
X112182429Y22951572D01*
X112182429Y23145095D01*
X112109857Y23241857D01*
X111964714Y23338619D01*
X111674429Y23387000D01*
X111166429Y23387000D01*
X110876143Y23338619D01*
X110731000Y23241857D01*
X110658429Y23145095D01*
X110658429Y22274238D02*
X111892143Y22274238D01*
X112037286Y22225857D01*
X112109857Y22177476D01*
X112182429Y22080714D01*
X112182429Y21887191D01*
X112109857Y21790429D01*
X112037286Y21742048D01*
X111892143Y21693667D01*
X110658429Y21693667D01*
X110658429Y21355000D02*
X110658429Y20774429D01*
X112182429Y21064714D02*
X110658429Y21064714D01*
D11*
X123463899Y22703921D02*
X123463899Y24494621D01*
X123053628Y24494621D01*
X122951061Y24409350D01*
X122899777Y24324079D01*
X122848493Y24153536D01*
X122848493Y23897721D01*
X122899777Y23727179D01*
X122951061Y23641907D01*
X123053628Y23556636D01*
X123463899Y23556636D01*
X121874101Y24494621D02*
X122386939Y24494621D01*
X122438223Y23641907D01*
X122386939Y23727179D01*
X122284371Y23812450D01*
X122027952Y23812450D01*
X121925385Y23727179D01*
X121874101Y23641907D01*
X121822817Y23471364D01*
X121822817Y23045007D01*
X121874101Y22874464D01*
X121925385Y22789193D01*
X122027952Y22703921D01*
X122284371Y22703921D01*
X122386939Y22789193D01*
X122438223Y22874464D01*
D12*
X112055429Y33583286D02*
X112055429Y34067095D01*
X110531429Y34067095D01*
X111257143Y33244619D02*
X111257143Y32905953D01*
X112055429Y32760810D02*
X112055429Y33244619D01*
X110531429Y33244619D01*
X110531429Y32760810D01*
X112055429Y32325381D02*
X110531429Y32325381D01*
X110531429Y32083476D01*
X110604000Y31938334D01*
X110749143Y31841572D01*
X110894286Y31793191D01*
X111184571Y31744810D01*
X111402286Y31744810D01*
X111692571Y31793191D01*
X111837714Y31841572D01*
X111982857Y31938334D01*
X112055429Y32083476D01*
X112055429Y32325381D01*
X112200571Y31551286D02*
X112200571Y30777191D01*
X112055429Y30535286D02*
X110531429Y30535286D01*
X112055429Y30051476D02*
X110531429Y30051476D01*
X112055429Y29470905D01*
X110531429Y29470905D01*
M02*
