M48
;DRILL file {KiCad 4.0.0-rc2-stable} date 02/03/2016 18:28:10
;FORMAT={-:-/ absolute / metric / decimal}
FMAT,2
METRIC,TZ
T1C0.635
T2C0.800
T3C1.016
T4C3.000
%
G90
G05
M71
T1
X123.177Y29.991
T2
X114.033Y29.737
X114.033Y25.292
X117.158Y29.737
X117.158Y25.292
X120.283Y29.737
X120.283Y25.292
T3
X106.54Y36.595
X106.54Y34.055
X106.54Y20.72
X106.54Y18.18
X114.541Y34.944
X114.541Y32.404
X114.541Y22.625
X114.541Y20.085
X117.081Y34.944
X117.081Y32.404
X117.081Y22.625
X117.081Y20.085
X119.621Y34.944
X119.621Y32.404
X119.621Y22.625
X119.621Y20.085
X128.13Y36.595
X128.13Y34.055
X128.13Y20.72
X128.13Y18.18
T4
X105.397Y27.578
X128.765Y27.451
T0
M30
