G04 #@! TF.FileFunction,Copper,L1,Top,Signal*
%FSLAX46Y46*%
G04 Gerber Fmt 4.6, Leading zero omitted, Abs format (unit mm)*
G04 Created by KiCad (PCBNEW 4.0.0-rc2-stable) date 02/03/2016 18:28:07*
%MOMM*%
G01*
G04 APERTURE LIST*
%ADD10C,0.150000*%
%ADD11R,2.500000X3.000000*%
%ADD12O,2.500000X3.000000*%
%ADD13R,1.727200X1.727200*%
%ADD14O,1.727200X1.727200*%
%ADD15R,2.032000X2.032000*%
%ADD16O,2.032000X2.032000*%
%ADD17C,6.000000*%
%ADD18C,0.889000*%
%ADD19C,0.762000*%
%ADD20C,2.032000*%
%ADD21C,1.000000*%
%ADD22C,0.508000*%
G04 APERTURE END LIST*
D10*
D11*
X114033000Y29737000D03*
D12*
X117158000Y29737000D03*
X120283000Y29737000D03*
D13*
X119621000Y34944000D03*
D14*
X119621000Y32404000D03*
X117081000Y34944000D03*
X117081000Y32404000D03*
X114541000Y34944000D03*
X114541000Y32404000D03*
D15*
X128130000Y34055000D03*
D16*
X128130000Y36595000D03*
D15*
X128130000Y18180000D03*
D16*
X128130000Y20720000D03*
D11*
X114033000Y25292000D03*
D12*
X117158000Y25292000D03*
X120283000Y25292000D03*
D13*
X119621000Y22625000D03*
D14*
X119621000Y20085000D03*
X117081000Y22625000D03*
X117081000Y20085000D03*
X114541000Y22625000D03*
X114541000Y20085000D03*
D15*
X106540000Y20720000D03*
D16*
X106540000Y18180000D03*
D15*
X106540000Y36595000D03*
D16*
X106540000Y34055000D03*
D17*
X128765000Y27451000D03*
X105397000Y27578000D03*
D18*
X123177000Y29991000D03*
D19*
X114033000Y25292000D02*
X114033000Y29737000D01*
D20*
X114033000Y29483000D02*
X114033000Y25419000D01*
X105397000Y27578000D02*
X113652000Y27578000D01*
X113652000Y27578000D02*
X114033000Y27959000D01*
D21*
X114033000Y25419000D02*
X114033000Y27959000D01*
X114033000Y27959000D02*
X114033000Y29483000D01*
X114033000Y25546000D02*
X113906000Y25419000D01*
X113906000Y29356000D02*
X114033000Y29483000D01*
D19*
X120283000Y25292000D02*
X120283000Y29737000D01*
X128130000Y34055000D02*
X124193000Y34055000D01*
X123304000Y34944000D02*
X119621000Y34944000D01*
X124193000Y34055000D02*
X123304000Y34944000D01*
X128130000Y34055000D02*
X128130000Y28086000D01*
X128130000Y28086000D02*
X128765000Y27451000D01*
D20*
X124193000Y27324000D02*
X128638000Y27324000D01*
X128638000Y27324000D02*
X128765000Y27451000D01*
X120283000Y27324000D02*
X124193000Y27324000D01*
X128638000Y27324000D02*
X128765000Y27451000D01*
X120283000Y29483000D02*
X120283000Y27324000D01*
X120283000Y27324000D02*
X120283000Y25419000D01*
D21*
X128765000Y27451000D02*
X120410000Y27451000D01*
X120410000Y27451000D02*
X120156000Y27705000D01*
X119621000Y24884000D02*
X120156000Y25419000D01*
X120156000Y27705000D02*
X120510000Y27705000D01*
X120510000Y27705000D02*
X120156000Y27705000D01*
X120156000Y25419000D02*
X120156000Y27705000D01*
X120156000Y27705000D02*
X120156000Y29356000D01*
X120156000Y29356000D02*
X120283000Y29483000D01*
X117081000Y34944000D02*
X117081000Y35325000D01*
D19*
X106540000Y18180000D02*
X116700000Y18180000D01*
X116700000Y18180000D02*
X117081000Y18561000D01*
X117081000Y18561000D02*
X117081000Y20085000D01*
D21*
X106159000Y18561000D02*
X106413000Y18561000D01*
X106413000Y18561000D02*
X106921000Y18053000D01*
X106921000Y18053000D02*
X116573000Y18053000D01*
X117081000Y18561000D02*
X117081000Y20085000D01*
X116573000Y18053000D02*
X117081000Y18561000D01*
D19*
X106540000Y34055000D02*
X106794000Y34055000D01*
X106794000Y34055000D02*
X108445000Y32404000D01*
D21*
X107302000Y33547000D02*
X108445000Y32404000D01*
X108445000Y32404000D02*
X114541000Y32404000D01*
X117158000Y22702000D02*
X117081000Y22625000D01*
X117031000Y22675000D02*
X117081000Y22625000D01*
D19*
X119621000Y20085000D02*
X121526000Y20085000D01*
X121526000Y20085000D02*
X122161000Y20720000D01*
X122161000Y20720000D02*
X128130000Y20720000D01*
D22*
X119621000Y32404000D02*
X121145000Y32404000D01*
X123177000Y30372000D02*
X123177000Y29991000D01*
X121145000Y32404000D02*
X123177000Y30372000D01*
D21*
X128003000Y21101000D02*
X122542000Y21101000D01*
X122542000Y21101000D02*
X121526000Y20085000D01*
M02*
