M48
;DRILL file {KiCad 4.0.0-rc2-stable} date 23/12/2015 17:02:09
;FORMAT={-:-/ absolute / metric / decimal}
FMAT,2
METRIC,TZ
T1C0.635
T2C0.800
T3C0.800
T4C0.813
T5C1.001
T6C1.500
%
G90
G05
M71
T1
X88.426Y-27.856
X89.569Y-29.126
X90.712Y-27.983
X92.236Y-32.428
X95.03Y-29.761
X95.792Y-15.283
X101.761Y-32.428
X102.015Y-29.507
X103.031Y-34.46
X104.301Y-33.063
X105.317Y-29.507
X110.397Y-23.665
X110.778Y-34.079
X114.842Y-27.094
X121.446Y-16.172
X122.716Y-25.316
X126.526Y-27.602
X135.035Y-22.649
X138.591Y-23.538
T2
X128.05Y-17.315
X128.05Y-32.555
X130.59Y-17.315
X130.59Y-32.555
X133.13Y-17.315
X133.13Y-32.555
X135.67Y-17.315
X135.67Y-32.555
X138.21Y-17.315
X138.21Y-32.555
X140.75Y-17.315
X140.75Y-32.555
X143.29Y-17.315
X143.29Y-32.555
X145.83Y-17.315
X145.83Y-32.555
X148.37Y-17.315
X148.37Y-32.555
X150.91Y-17.315
X150.91Y-32.555
X153.45Y-17.315
X153.45Y-32.555
X155.99Y-17.315
X155.99Y-32.555
X158.53Y-17.315
X158.53Y-32.555
X161.07Y-17.315
X161.07Y-32.555
T3
X168.69Y-30.015
X173.77Y-30.015
T4
X85.005Y-18.585
X85.005Y-22.395
X85.005Y-26.205
X86.005Y-19.855
X86.005Y-21.125
X86.005Y-23.665
X86.005Y-24.935
X92.625Y-18.585
X92.625Y-22.395
X92.625Y-26.205
X93.625Y-19.855
X93.625Y-21.125
X93.625Y-23.665
X93.625Y-24.935
X99.61Y-18.585
X99.61Y-22.395
X99.61Y-26.205
X100.61Y-19.855
X100.61Y-21.125
X100.61Y-23.665
X100.61Y-24.935
X106.595Y-18.585
X106.595Y-22.395
X106.595Y-26.205
X107.595Y-19.855
X107.595Y-21.125
X107.595Y-23.665
X107.595Y-24.935
X129.955Y-12.235
X129.955Y-26.84
X132.495Y-12.235
X132.495Y-26.84
X135.035Y-12.235
X135.035Y-26.84
X137.575Y-12.235
X137.575Y-26.84
X140.115Y-12.235
X140.115Y-26.84
X142.655Y-12.235
X142.655Y-26.84
X145.195Y-12.235
X145.195Y-26.84
X147.735Y-12.235
X147.735Y-26.84
X150.275Y-12.235
X150.275Y-26.84
X152.815Y-12.235
X152.815Y-26.84
X155.355Y-12.235
X155.355Y-26.84
X157.895Y-12.235
X157.895Y-26.84
X160.435Y-12.235
X160.435Y-26.84
X162.975Y-12.235
X162.975Y-26.84
X165.515Y-12.235
X165.515Y-26.84
T5
X112.81Y-11.727
X112.81Y-21.125
X112.81Y-23.665
X112.81Y-33.063
X115.35Y-11.727
X115.35Y-21.125
X115.35Y-23.665
X115.35Y-33.063
X117.89Y-11.727
X117.89Y-21.125
X117.89Y-23.665
X117.89Y-33.063
X171.865Y-12.87
X171.865Y-22.268
X177.58Y-12.235
X177.58Y-17.315
X177.58Y-22.395
X177.58Y-27.475
X177.58Y-32.555
T6
X85.505Y-15.915
X85.505Y-28.875
X93.125Y-15.915
X93.125Y-28.875
X100.11Y-15.915
X100.11Y-28.875
X107.095Y-15.915
X107.095Y-28.875
T0
M30
