G04 #@! TF.FileFunction,Soldermask,Top*
%FSLAX46Y46*%
G04 Gerber Fmt 4.6, Leading zero omitted, Abs format (unit mm)*
G04 Created by KiCad (PCBNEW 4.0.0-rc2-stable) date 23/12/2015 17:02:07*
%MOMM*%
G01*
G04 APERTURE LIST*
%ADD10C,0.150000*%
%ADD11C,3.048000*%
%ADD12R,2.082800X2.794000*%
%ADD13O,2.082800X2.794000*%
%ADD14C,2.408000*%
%ADD15R,2.540000X2.540000*%
%ADD16C,2.540000*%
%ADD17R,2.608580X2.608580*%
%ADD18C,2.707640*%
%ADD19C,2.908000*%
%ADD20R,1.708000X1.708000*%
%ADD21C,1.708000*%
%ADD22C,2.308000*%
%ADD23C,3.508000*%
G04 APERTURE END LIST*
D10*
D11*
X171865000Y-12870000D03*
X171865000Y-22268000D03*
D12*
X165515000Y-12235000D03*
D13*
X162975000Y-12235000D03*
X160435000Y-12235000D03*
X157895000Y-12235000D03*
X155355000Y-12235000D03*
X152815000Y-12235000D03*
X150275000Y-12235000D03*
X147735000Y-12235000D03*
X145195000Y-12235000D03*
X142655000Y-12235000D03*
X140115000Y-12235000D03*
X137575000Y-12235000D03*
X135035000Y-12235000D03*
X132495000Y-12235000D03*
X129955000Y-12235000D03*
X129955000Y-26840000D03*
X132495000Y-26840000D03*
X135035000Y-26840000D03*
X137575000Y-26840000D03*
X140115000Y-26840000D03*
X142655000Y-26840000D03*
X145195000Y-26840000D03*
X147735000Y-26840000D03*
X150275000Y-26840000D03*
X152815000Y-26840000D03*
X155355000Y-26840000D03*
X157895000Y-26840000D03*
X160435000Y-26840000D03*
X162975000Y-26840000D03*
X165515000Y-26840000D03*
D14*
X158530000Y-17315000D03*
X155990000Y-17315000D03*
X153450000Y-17315000D03*
X150910000Y-17315000D03*
X148370000Y-17315000D03*
X145830000Y-17315000D03*
X143290000Y-17315000D03*
X140750000Y-17315000D03*
X138210000Y-17315000D03*
X135670000Y-17315000D03*
X133130000Y-17315000D03*
X130590000Y-17315000D03*
X128050000Y-17315000D03*
X128050000Y-32555000D03*
X130590000Y-32555000D03*
X133130000Y-32555000D03*
X135670000Y-32555000D03*
X138210000Y-32555000D03*
X140750000Y-32555000D03*
X143290000Y-32555000D03*
X145830000Y-32555000D03*
X148370000Y-32555000D03*
X150910000Y-32555000D03*
X153450000Y-32555000D03*
X155990000Y-32555000D03*
X158530000Y-32555000D03*
X161070000Y-32555000D03*
X161070000Y-17315000D03*
D15*
X168690000Y-30015000D03*
D16*
X173770000Y-30015000D03*
D17*
X177580000Y-32555000D03*
D18*
X177580000Y-27475000D03*
X177580000Y-22395000D03*
X177580000Y-17315000D03*
X177580000Y-12235000D03*
D19*
X107095000Y-28875000D03*
D20*
X106595000Y-18585000D03*
D21*
X107595000Y-19855000D03*
X107595000Y-21125000D03*
X106595000Y-22395000D03*
X107595000Y-23665000D03*
X107595000Y-24935000D03*
X106595000Y-26205000D03*
D19*
X107095000Y-15915000D03*
X100110000Y-28875000D03*
D20*
X99610000Y-18585000D03*
D21*
X100610000Y-19855000D03*
X100610000Y-21125000D03*
X99610000Y-22395000D03*
X100610000Y-23665000D03*
X100610000Y-24935000D03*
X99610000Y-26205000D03*
D19*
X100110000Y-15915000D03*
X93125000Y-28875000D03*
D20*
X92625000Y-18585000D03*
D21*
X93625000Y-19855000D03*
X93625000Y-21125000D03*
X92625000Y-22395000D03*
X93625000Y-23665000D03*
X93625000Y-24935000D03*
X92625000Y-26205000D03*
D19*
X93125000Y-15915000D03*
X85505000Y-28875000D03*
D20*
X85005000Y-18585000D03*
D21*
X86005000Y-19855000D03*
X86005000Y-21125000D03*
X85005000Y-22395000D03*
X86005000Y-23665000D03*
X86005000Y-24935000D03*
X85005000Y-26205000D03*
D19*
X85505000Y-15915000D03*
D22*
X112810000Y-21125000D03*
X112810000Y-11727000D03*
X115350000Y-21125000D03*
X115350000Y-11727000D03*
X117890000Y-21125000D03*
X117890000Y-11727000D03*
X112810000Y-23665000D03*
X112810000Y-33063000D03*
X115350000Y-23665000D03*
X115350000Y-33063000D03*
X117890000Y-23665000D03*
X117890000Y-33063000D03*
D23*
X78520000Y-14140000D03*
X78520000Y-31920000D03*
X185200000Y-14140000D03*
X185200000Y-31920000D03*
M02*
